<svg width="24" height="24" viewBox="0 0 24 24" fill="none" xmlns="http://www.w3.org/2000/svg">
<g clip-path="url(#clip0_99_34)">
<g clip-path="url(#clip1_99_34)">
<path d="M23.49 12.27C23.49 11.48 23.42 10.73 23.3 10H12V14.51H18.47C18.18 15.99 17.33 17.24 16.07 18.09V21.09H19.93C22.19 19 23.49 15.92 23.49 12.27Z" fill="#4285F4"/>
<path d="M11.9991 24C15.2391 24 17.9491 22.92 19.9291 21.09L16.0691 18.09C14.9891 18.81 13.6191 19.25 11.9991 19.25C8.86906 19.25 6.21906 17.14 5.26906 14.29H1.28906V17.38C3.25906 21.3 7.30906 24 11.9991 24Z" fill="#34A853"/>
<path d="M5.27 14.2901C5.02 13.5701 4.89 12.8001 4.89 12.0001C4.89 11.2001 5.03 10.4301 5.27 9.71012V6.62012H1.29C0.469999 8.24012 0 10.0601 0 12.0001C0 13.9401 0.469999 15.7601 1.29 17.3801L5.27 14.2901Z" fill="#FBBC05"/>
<path d="M11.9991 4.75C13.7691 4.75 15.3491 5.36 16.5991 6.55L20.0191 3.13C17.9491 1.19 15.2391 0 11.9991 0C7.30906 0 3.25906 2.7 1.28906 6.62L5.26906 9.71C6.21906 6.86 8.86906 4.75 11.9991 4.75Z" fill="#EA4335"/>
</g>
</g>
<defs>
<clipPath id="clip0_99_34">
<rect width="24" height="24" fill="white"/>
</clipPath>
<clipPath id="clip1_99_34">
<rect width="24" height="24" fill="white"/>
</clipPath>
</defs>
</svg>
